<?xml version="1.0" standalone="no"?><svg xmlns="http://www.w3.org/2000/svg" viewBox="0 0 1440 320"><path fill="#17a2b8" fill-opacity="1" d="M0,0L84.7,224L169.4,96L254.1,32L338.8,288L423.5,32L508.2,224L592.9,160L677.6,128L762.4,128L847.1,0L931.8,64L1016.5,192L1101.2,96L1185.9,64L1270.6,192L1355.3,256L1440,64L1440,320L1355.3,320L1270.6,320L1185.9,320L1101.2,320L1016.5,320L931.8,320L847.1,320L762.4,320L677.6,320L592.9,320L508.2,320L423.5,320L338.8,320L254.1,320L169.4,320L84.7,320L0,320Z"></path></svg>